<mxfile host="app.diagrams.net" modified="2023-12-20T08:56:10.723Z" agent="Mozilla/5.0 (Macintosh; Intel Mac OS X 10_15_7) AppleWebKit/537.36 (KHTML, like Gecko) Chrome/120.0.0.0 Safari/537.36" version="22.1.11" etag="gl13qHnn55KkVmwuucDH" type="github">
  <diagram name="Page-1" id="FlHQ7lCVZIV-XiYfP3Ol">
    <mxGraphModel>
      <root>
        <mxCell id="0" />
        <mxCell id="1" parent="0" />
      </root>
    </mxGraphModel>
  </diagram>
</mxfile>
